<svg width="256.000000" height="256.000000" viewBox="0 0 256 256" fill="none" xmlns="http://www.w3.org/2000/svg" xmlns:xlink="http://www.w3.org/1999/xlink">
	<desc>
			Created with Pixso.
	</desc>
	<defs/>
	<path id="矢量 1" d="M11 0L245 0C251.07 0 256 4.92 256 11L256 245C256 251.07 251.07 256 245 256L11 256C4.92 256 0 251.07 0 245L0 11C0 4.92 4.92 0 11 0Z" fill="#C4C4C4" fill-opacity="1.000000" fill-rule="evenodd"/>
	<path id="矢量 1" d="M22 11L234 11C240.07 11 245 15.92 245 22L245 234C245 240.07 240.07 245 234 245L22 245C15.92 245 11 240.07 11 234L11 22C11 15.92 15.92 11 22 11Z" fill="#DFDCDC" fill-opacity="1.000000" fill-rule="evenodd"/>
</svg>
